<?xml version="1.0" standalone="no"?>
<!DOCTYPE svg PUBLIC "-//W3C//DTD SVG 20010904//EN"
 "http://www.w3.org/TR/2001/REC-SVG-20010904/DTD/svg10.dtd">
<svg version="1.0" xmlns="http://www.w3.org/2000/svg"
 width="512.000000pt" height="512.000000pt" viewBox="0 0 512.000000 512.000000"
 preserveAspectRatio="xMidYMid meet">
<metadata>
Created by potrace 1.11, written by Peter Selinger 2001-2013
</metadata>
<g transform="translate(0.000000,512.000000) scale(0.100000,-0.100000)"
fill="#000000" stroke="none">
<path d="M2429 5115 c-2 -2 -30 -6 -61 -9 -78 -8 -208 -50 -293 -94 -165 -86
-290 -219 -386 -411 -39 -78 -93 -230 -104 -290 -3 -19 -8 -38 -11 -42 -3 -5
-7 -21 -8 -36 -2 -16 -9 -56 -15 -90 -21 -115 -32 -251 -33 -405 l-1 -108
-271 -1 c-149 -1 -274 -1 -279 0 -4 1 -40 -6 -80 -15 -141 -31 -263 -124 -342
-259 -73 -125 -100 -247 -92 -405 4 -58 8 -116 11 -130 2 -14 7 -53 10 -86 3
-34 8 -77 11 -95 4 -31 9 -76 20 -184 6 -56 16 -143 20 -169 2 -11 6 -48 10
-81 4 -33 8 -73 10 -90 2 -16 6 -57 10 -90 3 -33 8 -73 10 -90 3 -16 7 -55 10
-85 3 -30 7 -68 9 -85 4 -26 8 -64 22 -190 1 -16 5 -48 8 -70 5 -42 15 -124
22 -190 2 -22 6 -56 8 -75 3 -19 7 -60 11 -90 3 -30 8 -73 10 -95 9 -68 15
-118 20 -170 2 -27 6 -63 9 -80 2 -16 8 -59 12 -95 7 -68 8 -78 19 -175 27
-230 191 -431 412 -505 56 -19 97 -19 1418 -19 1217 0 1365 1 1410 16 137 43
246 123 324 237 29 42 72 125 77 151 1 6 8 33 14 60 7 28 13 70 15 95 2 25 8
81 14 125 9 75 14 115 26 223 3 23 7 61 10 85 9 80 16 142 21 182 11 88 13
112 19 165 3 30 7 71 10 90 6 50 12 105 20 180 4 36 8 76 10 90 2 14 7 50 10
80 3 30 8 71 10 90 2 19 7 60 10 90 4 30 8 66 10 80 2 14 7 59 10 100 4 41 9
84 11 95 2 11 7 49 10 85 3 36 8 76 10 90 3 14 7 48 9 75 2 28 6 64 9 80 3 17
8 62 12 100 3 39 8 79 10 90 9 44 18 174 17 245 -1 61 -13 135 -36 226 -2 7
-20 47 -41 89 -48 98 -154 208 -238 248 -99 48 -162 55 -481 56 -161 0 -296 1
-301 1 -5 0 1 11 14 24 15 17 21 33 18 50 -3 15 -1 26 4 26 5 0 7 4 4 9 -4 5
-8 54 -11 108 -8 169 -18 248 -51 413 -43 207 -137 416 -244 544 -67 80 -262
232 -281 220 -4 -2 -10 0 -13 5 -7 10 -144 57 -191 65 -16 3 -41 8 -55 11 -26
7 -325 16 -331 10z m268 -429 c139 -20 244 -69 328 -151 68 -67 104 -125 140
-220 29 -75 33 -94 53 -240 10 -71 11 -91 16 -296 1 -63 6 -120 9 -126 4 -7 3
-14 -3 -18 -8 -5 -326 -6 -1272 -5 l-87 0 4 203 c2 111 6 211 8 222 5 20 20
120 22 140 1 6 9 37 19 69 57 192 175 325 342 385 109 40 293 56 421 37z
m-1113 -1385 c4 -5 16 -7 29 -3 38 12 2307 14 2357 2 25 -6 52 -12 62 -14 67
-17 174 -102 226 -181 61 -91 93 -200 94 -315 1 -48 -2 -82 -17 -215 -2 -16
-6 -50 -9 -75 -3 -25 -7 -63 -10 -85 -3 -22 -8 -65 -11 -95 -3 -30 -8 -66 -10
-80 -2 -14 -7 -50 -10 -80 -5 -55 -11 -99 -21 -175 -3 -22 -7 -60 -9 -84 -2
-24 -6 -64 -9 -88 -3 -23 -9 -64 -12 -90 -3 -27 -7 -59 -10 -73 -2 -14 -6 -50
-9 -80 -3 -30 -7 -71 -10 -90 -2 -19 -7 -60 -11 -90 -3 -30 -8 -64 -10 -75 -2
-11 -6 -49 -9 -85 -3 -36 -7 -75 -9 -86 -4 -20 -19 -145 -32 -269 -10 -96 -25
-176 -40 -223 -49 -143 -201 -279 -351 -313 -69 -15 -2291 -15 -2365 1 -137
29 -281 145 -336 270 -28 66 -31 75 -37 114 -3 21 -7 48 -10 60 -2 12 -7 48
-10 81 -3 33 -7 78 -10 100 -3 22 -7 60 -10 85 -3 25 -8 56 -10 70 -2 14 -7
54 -10 90 -5 63 -10 103 -19 165 -3 17 -8 57 -11 90 -3 33 -8 74 -10 90 -2 17
-6 51 -9 78 -9 74 -17 139 -22 174 -2 18 -6 51 -8 75 -3 24 -7 63 -10 88 -3
25 -8 63 -11 85 -2 22 -9 81 -15 130 -6 50 -13 108 -15 130 -3 22 -7 56 -9 75
-4 36 -7 59 -27 220 -6 52 -13 127 -14 166 -4 132 50 290 128 375 38 42 127
115 127 104 0 -4 7 -1 16 6 41 35 125 47 336 48 124 1 209 -2 212 -8z"/>
<path d="M1792 2974 c-51 -19 -120 -84 -147 -139 -25 -51 -26 -175 -2 -221
101 -196 347 -210 461 -27 14 24 26 51 26 61 0 10 3 22 7 25 8 8 7 69 -2 111
-14 68 -74 145 -139 178 -53 27 -147 33 -204 12z"/>
<path d="M3170 2980 c-141 -38 -223 -186 -182 -329 63 -225 350 -261 475 -59
22 36 30 73 29 141 -1 167 -162 290 -322 247z"/>
</g>
</svg>
